<svg width="138" height="81" viewBox="0 0 138 81" fill="none" xmlns="http://www.w3.org/2000/svg">
<path d="M23.3377 46C20.2752 46 17.5252 43.8125 17.1502 40.75C16.7127 37.125 19.5252 34 23.1502 34C26.0252 34 28.4627 36.0625 29.0252 38.8125C29.1502 39.4375 28.6502 40 28.0252 40H25.9627C25.5252 40 25.1502 39.75 25.0252 39.3125C24.7752 38.5625 24.0252 38 23.0877 38C21.9002 38 20.9627 39.0625 21.1502 40.3125C21.2752 41.3125 22.2127 42 23.2127 42H32.0877C32.6502 42 33.0877 42.4375 33.0877 43V45C33.0877 45.5 32.6502 46 32.0877 46H23.3377ZM32.0877 48C32.6502 48 33.0877 48.4375 33.0877 49V51C33.0877 51.5 32.6502 52 32.0877 52H11.2127C10.2127 52 9.27521 52.625 9.15021 53.625C8.96271 54.875 9.90021 56 11.0877 56C12.0252 56 12.7752 55.375 13.0252 54.625C13.1502 54.1875 13.5252 54 13.9627 54H16.0252C16.6502 54 17.1502 54.5 17.0252 55.125C16.4002 58.25 13.2752 60.5625 9.83771 59.8125C7.58771 59.375 5.71271 57.5 5.27521 55.25C4.46271 51.375 7.40021 48 11.0877 48H32.0877ZM8.08771 46C3.71271 46 0.212708 41.875 1.33771 37.3125C1.90021 34.75 4.02521 32.6875 6.58771 32.125C10.2752 31.375 13.5877 33.5 14.7127 36.625C14.9002 37.3125 14.4002 38 13.7127 38H11.6502C11.2752 38 10.9002 37.8125 10.7127 37.5C10.2127 36.5625 9.21271 36 8.08771 36C6.46271 36 5.08771 37.3125 5.08771 39C5.08771 40.625 6.46271 42 8.08771 42H15.4002C15.8377 43.5625 16.6502 44.9375 17.9002 46H8.08771Z" fill="#F29A2E"/>
<path d="M48.0399 27.1826C49.5666 27.1826 51.0497 27.4443 52.4892 27.9678C53.9722 28.4912 55.3899 29.2546 56.7421 30.2578C56.9602 30.4759 57.2001 30.694 57.4618 30.9121C57.6799 30.694 57.9198 30.4759 58.1815 30.2578C59.5338 29.2546 60.9296 28.4912 62.369 27.9678C63.8521 27.4443 65.3352 27.1826 66.8183 27.1826C68.345 27.1826 69.828 27.4443 71.2675 27.9678C72.7506 28.4912 74.1464 29.2764 75.455 30.3232C76.8072 31.3265 77.9849 32.6787 78.9882 34.3799C80.0351 36.0811 80.5585 38.1094 80.5585 40.4648V54.4014C80.2968 57.0186 78.8573 58.4362 76.2401 58.6543C75.0188 58.6543 73.9501 58.2617 73.0341 57.4766C72.1617 56.6478 71.7255 55.6227 71.7255 54.4014V40.9883C71.7255 39.9414 71.5292 39.069 71.1366 38.3711C70.744 37.6296 70.3079 37.0625 69.828 36.6699C69.3482 36.2337 68.8466 35.9284 68.3232 35.7539C67.7997 35.5358 67.2763 35.4268 66.7528 35.4268C66.2294 35.4268 65.706 35.5358 65.1825 35.7539C64.7027 35.9284 64.2229 36.2337 63.7431 36.6699C63.2633 37.0625 62.8271 37.6296 62.4345 38.3711C62.0419 39.069 61.8238 39.9414 61.7802 40.9883V54.4014C61.5185 57.0186 60.079 58.4362 57.4618 58.6543C56.2405 58.6543 55.1718 58.2617 54.2558 57.4766C53.3834 56.6478 52.9472 55.6227 52.9472 54.4014V40.9883C52.9472 39.9414 52.7509 39.069 52.3583 38.3711C51.9657 37.6296 51.5295 37.0625 51.0497 36.6699C50.5699 36.2337 50.0683 35.9284 49.5448 35.7539C49.0214 35.5358 48.498 35.4268 47.9745 35.4268C47.4511 35.4268 46.9276 35.5358 46.4042 35.7539C45.9244 35.9284 45.4446 36.2337 44.9648 36.6699C44.4849 37.0625 44.0487 37.6296 43.6562 38.3711C43.2636 39.069 43.0455 39.9414 43.0019 40.9883V54.4014C42.7838 57.0186 41.3661 58.4362 38.7489 58.6543C37.5276 58.6543 36.4589 58.2617 35.5429 57.4766C34.6705 56.6478 34.2343 55.6227 34.2343 54.4014V40.4648C34.3215 38.1094 34.8668 36.0811 35.87 34.3799C36.8733 32.6787 38.051 31.3265 39.4032 30.3232C40.7554 29.2764 42.1513 28.4912 43.5907 27.9678C45.0738 27.4443 46.5569 27.1826 48.0399 27.1826ZM88.5341 67.5703V26.0469C88.5341 25.5 88.7164 25.0443 89.081 24.6797C89.4716 24.2891 89.9273 24.0938 90.4482 24.0938C90.995 24.0938 91.4508 24.2891 91.8153 24.6797C92.206 25.0443 92.4013 25.5 92.4013 26.0469V67.5703C92.4013 68.0911 92.206 68.5339 91.8153 68.8984C91.4508 69.2891 90.995 69.4844 90.4482 69.4844C89.9273 69.4844 89.4716 69.2891 89.081 68.8984C88.7164 68.5339 88.5341 68.0911 88.5341 67.5703ZM106.054 55.4121C105.858 57.3652 104.784 58.4232 102.831 58.5859C101.92 58.5859 101.122 58.293 100.438 57.707C99.7873 57.0885 99.4618 56.3236 99.4618 55.4121V32.2676C99.4944 31.3561 99.8362 30.6074 100.487 30.0215C101.138 29.403 101.92 29.0938 102.831 29.0938H105.224H111.229H123.29C123.485 29.0938 123.681 29.11 123.876 29.1426H124.169C126.447 29.2077 128.319 29.7285 129.784 30.7051C131.249 31.6816 132.307 32.8047 132.958 34.0742C133.609 35.3112 133.934 36.5645 133.934 37.834C133.934 39.1361 133.609 40.4219 132.958 41.6914C132.339 42.9284 131.281 44.0352 129.784 45.0117C128.319 45.9883 126.447 46.5091 124.169 46.5742H115.575C115.836 48.2018 116.373 49.4062 117.186 50.1875C117.968 50.9688 118.961 51.3594 120.165 51.3594H130.712C131.623 51.3919 132.372 51.7337 132.958 52.3848C133.576 53.0358 133.886 53.8171 133.886 54.7285C133.853 55.6074 133.528 56.3561 132.909 56.9746C132.323 57.5605 131.591 57.8698 130.712 57.9023H119.286C116.877 57.9349 114.696 56.9909 112.743 55.0703C110.79 53.1497 109.602 50.8711 109.179 48.2344C108.593 45.3047 108.3 43.6608 108.3 43.3027C108.3 42.3913 108.609 41.6263 109.227 41.0078C109.878 40.3568 110.66 40.0312 111.571 40.0312H124.462C125.08 39.9987 125.585 39.8685 125.975 39.6406C126.399 39.3802 126.708 39.1035 126.903 38.8105C127.099 38.485 127.196 38.1595 127.196 37.834C127.196 37.5085 127.099 37.1992 126.903 36.9062C126.708 36.5807 126.399 36.304 125.975 36.0762C125.585 35.8158 125.08 35.6693 124.462 35.6367H111.229H107.323C106.477 35.6693 106.054 36.0924 106.054 36.9062V55.4121Z" fill="black"/>
</svg>
